<svg xmlns="http://www.w3.org/2000/svg" viewBox="0 0 100 100"><path d="M99.0 50.0L98.4 53.2L96.9 56.2L94.7 58.9L92.4 61.4L90.4 63.7L89.0 66.1L88.2 68.9L88.0 71.9L87.9 75.3L87.5 78.8L86.5 82.0L84.6 84.6L82.0 86.5L78.8 87.5L75.3 87.9L71.9 88.0L68.9 88.2L66.1 89.0L63.7 90.4L61.4 92.4L58.9 94.7L56.2 96.9L53.2 98.4L50.0 99.0L46.8 98.4L43.8 96.9L41.1 94.7L38.6 92.4L36.3 90.4L33.9 89.0L31.1 88.2L28.1 88.0L24.7 87.9L21.2 87.5L18.0 86.5L15.4 84.6L13.5 82.0L12.5 78.8L12.1 75.3L12.0 71.9L11.8 68.9L11.0 66.1L9.6 63.7L7.6 61.4L5.3 58.9L3.1 56.2L1.6 53.2L1.0 50.0L1.6 46.8L3.1 43.8L5.3 41.1L7.6 38.6L9.6 36.3L11.0 33.9L11.8 31.1L12.0 28.1L12.1 24.7L12.5 21.2L13.5 18.0L15.4 15.4L18.0 13.5L21.2 12.5L24.7 12.1L28.1 12.0L31.1 11.8L33.9 11.0L36.3 9.6L38.6 7.6L41.1 5.3L43.8 3.1L46.8 1.6L50.0 1.0L53.2 1.6L56.2 3.1L58.9 5.3L61.4 7.6L63.7 9.6L66.1 11.0L68.9 11.8L71.9 12.0L75.3 12.1L78.8 12.5L82.0 13.5L84.6 15.4L86.5 18.0L87.5 21.2L87.9 24.7L88.0 28.1L88.2 31.1L89.0 33.9L90.4 36.3L92.4 38.6L94.7 41.1L96.9 43.8L98.4 46.8Z" fill="#0b57d0"/><path d="M36 30h17a13 13 0 0 1 0 26H44v14h-8z" fill="#fff"/></svg>